<svg xmlns="http://www.w3.org/2000/svg" xmlns:xlink="http://www.w3.org/1999/xlink" width="500" zoomAndPan="magnify" viewBox="0 0 375 374.999991" height="500" preserveAspectRatio="xMidYMid meet" version="1.0"><defs><g/></defs><g fill="#b9fbc0" fill-opacity="1"><g transform="translate(163.78845, 245.249984)"><g><path d="M 57.3125 -101.65625 C 64.800781 -101.65625 72.164062 -100.117188 79.40625 -97.046875 C 86.65625 -93.984375 92.828125 -89.859375 97.921875 -84.671875 L 83.09375 -67.109375 C 79.820312 -71.140625 75.90625 -74.328125 71.34375 -76.671875 C 66.789062 -79.023438 62.257812 -80.203125 57.75 -80.203125 C 49.78125 -80.203125 43.101562 -77.394531 37.71875 -71.78125 C 32.34375 -66.164062 29.65625 -59.226562 29.65625 -50.96875 C 29.65625 -42.519531 32.34375 -35.460938 37.71875 -29.796875 C 43.101562 -24.140625 49.78125 -21.3125 57.75 -21.3125 C 61.96875 -21.3125 66.359375 -22.363281 70.921875 -24.46875 C 75.484375 -26.582031 79.539062 -29.46875 83.09375 -33.125 L 98.0625 -17.28125 C 92.59375 -11.707031 86.132812 -7.238281 78.6875 -3.875 C 71.25 -0.519531 63.835938 1.15625 56.453125 1.15625 C 41.285156 1.15625 28.660156 -3.785156 18.578125 -13.671875 C 8.492188 -23.566406 3.453125 -35.90625 3.453125 -50.6875 C 3.453125 -65.1875 8.585938 -77.304688 18.859375 -87.046875 C 29.128906 -96.785156 41.945312 -101.65625 57.3125 -101.65625 Z M 57.3125 -101.65625 "/></g></g></g><g fill="#98f5e1" fill-opacity="1"><g transform="translate(158.838364, 245.249984)"><g><path d="M 57.3125 -101.65625 C 64.800781 -101.65625 72.164062 -100.117188 79.40625 -97.046875 C 86.65625 -93.984375 92.828125 -89.859375 97.921875 -84.671875 L 83.09375 -67.109375 C 79.820312 -71.140625 75.90625 -74.328125 71.34375 -76.671875 C 66.789062 -79.023438 62.257812 -80.203125 57.75 -80.203125 C 49.78125 -80.203125 43.101562 -77.394531 37.71875 -71.78125 C 32.34375 -66.164062 29.65625 -59.226562 29.65625 -50.96875 C 29.65625 -42.519531 32.34375 -35.460938 37.71875 -29.796875 C 43.101562 -24.140625 49.78125 -21.3125 57.75 -21.3125 C 61.96875 -21.3125 66.359375 -22.363281 70.921875 -24.46875 C 75.484375 -26.582031 79.539062 -29.46875 83.09375 -33.125 L 98.0625 -17.28125 C 92.59375 -11.707031 86.132812 -7.238281 78.6875 -3.875 C 71.25 -0.519531 63.835938 1.15625 56.453125 1.15625 C 41.285156 1.15625 28.660156 -3.785156 18.578125 -13.671875 C 8.492188 -23.566406 3.453125 -35.90625 3.453125 -50.6875 C 3.453125 -65.1875 8.585938 -77.304688 18.859375 -87.046875 C 29.128906 -96.785156 41.945312 -101.65625 57.3125 -101.65625 Z M 57.3125 -101.65625 "/></g></g></g><g fill="#8eecf5" fill-opacity="1"><g transform="translate(153.580043, 245.249984)"><g><path d="M 57.3125 -101.65625 C 64.800781 -101.65625 72.164062 -100.117188 79.40625 -97.046875 C 86.65625 -93.984375 92.828125 -89.859375 97.921875 -84.671875 L 83.09375 -67.109375 C 79.820312 -71.140625 75.90625 -74.328125 71.34375 -76.671875 C 66.789062 -79.023438 62.257812 -80.203125 57.75 -80.203125 C 49.78125 -80.203125 43.101562 -77.394531 37.71875 -71.78125 C 32.34375 -66.164062 29.65625 -59.226562 29.65625 -50.96875 C 29.65625 -42.519531 32.34375 -35.460938 37.71875 -29.796875 C 43.101562 -24.140625 49.78125 -21.3125 57.75 -21.3125 C 61.96875 -21.3125 66.359375 -22.363281 70.921875 -24.46875 C 75.484375 -26.582031 79.539062 -29.46875 83.09375 -33.125 L 98.0625 -17.28125 C 92.59375 -11.707031 86.132812 -7.238281 78.6875 -3.875 C 71.25 -0.519531 63.835938 1.15625 56.453125 1.15625 C 41.285156 1.15625 28.660156 -3.785156 18.578125 -13.671875 C 8.492188 -23.566406 3.453125 -35.90625 3.453125 -50.6875 C 3.453125 -65.1875 8.585938 -77.304688 18.859375 -87.046875 C 29.128906 -96.785156 41.945312 -101.65625 57.3125 -101.65625 Z M 57.3125 -101.65625 "/></g></g></g><g fill="#90dbf4" fill-opacity="1"><g transform="translate(148.02688, 245.249984)"><g><path d="M 57.3125 -101.65625 C 64.800781 -101.65625 72.164062 -100.117188 79.40625 -97.046875 C 86.65625 -93.984375 92.828125 -89.859375 97.921875 -84.671875 L 83.09375 -67.109375 C 79.820312 -71.140625 75.90625 -74.328125 71.34375 -76.671875 C 66.789062 -79.023438 62.257812 -80.203125 57.75 -80.203125 C 49.78125 -80.203125 43.101562 -77.394531 37.71875 -71.78125 C 32.34375 -66.164062 29.65625 -59.226562 29.65625 -50.96875 C 29.65625 -42.519531 32.34375 -35.460938 37.71875 -29.796875 C 43.101562 -24.140625 49.78125 -21.3125 57.75 -21.3125 C 61.96875 -21.3125 66.359375 -22.363281 70.921875 -24.46875 C 75.484375 -26.582031 79.539062 -29.46875 83.09375 -33.125 L 98.0625 -17.28125 C 92.59375 -11.707031 86.132812 -7.238281 78.6875 -3.875 C 71.25 -0.519531 63.835938 1.15625 56.453125 1.15625 C 41.285156 1.15625 28.660156 -3.785156 18.578125 -13.671875 C 8.492188 -23.566406 3.453125 -35.90625 3.453125 -50.6875 C 3.453125 -65.1875 8.585938 -77.304688 18.859375 -87.046875 C 29.128906 -96.785156 41.945312 -101.65625 57.3125 -101.65625 Z M 57.3125 -101.65625 "/></g></g></g><g fill="#a3c4f3" fill-opacity="1"><g transform="translate(142.344269, 245.249984)"><g><path d="M 57.3125 -101.65625 C 64.800781 -101.65625 72.164062 -100.117188 79.40625 -97.046875 C 86.65625 -93.984375 92.828125 -89.859375 97.921875 -84.671875 L 83.09375 -67.109375 C 79.820312 -71.140625 75.90625 -74.328125 71.34375 -76.671875 C 66.789062 -79.023438 62.257812 -80.203125 57.75 -80.203125 C 49.78125 -80.203125 43.101562 -77.394531 37.71875 -71.78125 C 32.34375 -66.164062 29.65625 -59.226562 29.65625 -50.96875 C 29.65625 -42.519531 32.34375 -35.460938 37.71875 -29.796875 C 43.101562 -24.140625 49.78125 -21.3125 57.75 -21.3125 C 61.96875 -21.3125 66.359375 -22.363281 70.921875 -24.46875 C 75.484375 -26.582031 79.539062 -29.46875 83.09375 -33.125 L 98.0625 -17.28125 C 92.59375 -11.707031 86.132812 -7.238281 78.6875 -3.875 C 71.25 -0.519531 63.835938 1.15625 56.453125 1.15625 C 41.285156 1.15625 28.660156 -3.785156 18.578125 -13.671875 C 8.492188 -23.566406 3.453125 -35.90625 3.453125 -50.6875 C 3.453125 -65.1875 8.585938 -77.304688 18.859375 -87.046875 C 29.128906 -96.785156 41.945312 -101.65625 57.3125 -101.65625 Z M 57.3125 -101.65625 "/></g></g></g><g fill="#cfbaf0" fill-opacity="1"><g transform="translate(136.200495, 245.249984)"><g><path d="M 57.3125 -101.65625 C 64.800781 -101.65625 72.164062 -100.117188 79.40625 -97.046875 C 86.65625 -93.984375 92.828125 -89.859375 97.921875 -84.671875 L 83.09375 -67.109375 C 79.820312 -71.140625 75.90625 -74.328125 71.34375 -76.671875 C 66.789062 -79.023438 62.257812 -80.203125 57.75 -80.203125 C 49.78125 -80.203125 43.101562 -77.394531 37.71875 -71.78125 C 32.34375 -66.164062 29.65625 -59.226562 29.65625 -50.96875 C 29.65625 -42.519531 32.34375 -35.460938 37.71875 -29.796875 C 43.101562 -24.140625 49.78125 -21.3125 57.75 -21.3125 C 61.96875 -21.3125 66.359375 -22.363281 70.921875 -24.46875 C 75.484375 -26.582031 79.539062 -29.46875 83.09375 -33.125 L 98.0625 -17.28125 C 92.59375 -11.707031 86.132812 -7.238281 78.6875 -3.875 C 71.25 -0.519531 63.835938 1.15625 56.453125 1.15625 C 41.285156 1.15625 28.660156 -3.785156 18.578125 -13.671875 C 8.492188 -23.566406 3.453125 -35.90625 3.453125 -50.6875 C 3.453125 -65.1875 8.585938 -77.304688 18.859375 -87.046875 C 29.128906 -96.785156 41.945312 -101.65625 57.3125 -101.65625 Z M 57.3125 -101.65625 "/></g></g></g><g fill="#f1c0e8" fill-opacity="1"><g transform="translate(129.978584, 245.249984)"><g><path d="M 57.3125 -101.65625 C 64.800781 -101.65625 72.164062 -100.117188 79.40625 -97.046875 C 86.65625 -93.984375 92.828125 -89.859375 97.921875 -84.671875 L 83.09375 -67.109375 C 79.820312 -71.140625 75.90625 -74.328125 71.34375 -76.671875 C 66.789062 -79.023438 62.257812 -80.203125 57.75 -80.203125 C 49.78125 -80.203125 43.101562 -77.394531 37.71875 -71.78125 C 32.34375 -66.164062 29.65625 -59.226562 29.65625 -50.96875 C 29.65625 -42.519531 32.34375 -35.460938 37.71875 -29.796875 C 43.101562 -24.140625 49.78125 -21.3125 57.75 -21.3125 C 61.96875 -21.3125 66.359375 -22.363281 70.921875 -24.46875 C 75.484375 -26.582031 79.539062 -29.46875 83.09375 -33.125 L 98.0625 -17.28125 C 92.59375 -11.707031 86.132812 -7.238281 78.6875 -3.875 C 71.25 -0.519531 63.835938 1.15625 56.453125 1.15625 C 41.285156 1.15625 28.660156 -3.785156 18.578125 -13.671875 C 8.492188 -23.566406 3.453125 -35.90625 3.453125 -50.6875 C 3.453125 -65.1875 8.585938 -77.304688 18.859375 -87.046875 C 29.128906 -96.785156 41.945312 -101.65625 57.3125 -101.65625 Z M 57.3125 -101.65625 "/></g></g></g><g fill="#ffcfd2" fill-opacity="1"><g transform="translate(123.990568, 245.249984)"><g><path d="M 57.3125 -101.65625 C 64.800781 -101.65625 72.164062 -100.117188 79.40625 -97.046875 C 86.65625 -93.984375 92.828125 -89.859375 97.921875 -84.671875 L 83.09375 -67.109375 C 79.820312 -71.140625 75.90625 -74.328125 71.34375 -76.671875 C 66.789062 -79.023438 62.257812 -80.203125 57.75 -80.203125 C 49.78125 -80.203125 43.101562 -77.394531 37.71875 -71.78125 C 32.34375 -66.164062 29.65625 -59.226562 29.65625 -50.96875 C 29.65625 -42.519531 32.34375 -35.460938 37.71875 -29.796875 C 43.101562 -24.140625 49.78125 -21.3125 57.75 -21.3125 C 61.96875 -21.3125 66.359375 -22.363281 70.921875 -24.46875 C 75.484375 -26.582031 79.539062 -29.46875 83.09375 -33.125 L 98.0625 -17.28125 C 92.59375 -11.707031 86.132812 -7.238281 78.6875 -3.875 C 71.25 -0.519531 63.835938 1.15625 56.453125 1.15625 C 41.285156 1.15625 28.660156 -3.785156 18.578125 -13.671875 C 8.492188 -23.566406 3.453125 -35.90625 3.453125 -50.6875 C 3.453125 -65.1875 8.585938 -77.304688 18.859375 -87.046875 C 29.128906 -96.785156 41.945312 -101.65625 57.3125 -101.65625 Z M 57.3125 -101.65625 "/></g></g></g><g fill="#fde4cf" fill-opacity="1"><g transform="translate(117.796125, 245.249984)"><g><path d="M 57.3125 -101.65625 C 64.800781 -101.65625 72.164062 -100.117188 79.40625 -97.046875 C 86.65625 -93.984375 92.828125 -89.859375 97.921875 -84.671875 L 83.09375 -67.109375 C 79.820312 -71.140625 75.90625 -74.328125 71.34375 -76.671875 C 66.789062 -79.023438 62.257812 -80.203125 57.75 -80.203125 C 49.78125 -80.203125 43.101562 -77.394531 37.71875 -71.78125 C 32.34375 -66.164062 29.65625 -59.226562 29.65625 -50.96875 C 29.65625 -42.519531 32.34375 -35.460938 37.71875 -29.796875 C 43.101562 -24.140625 49.78125 -21.3125 57.75 -21.3125 C 61.96875 -21.3125 66.359375 -22.363281 70.921875 -24.46875 C 75.484375 -26.582031 79.539062 -29.46875 83.09375 -33.125 L 98.0625 -17.28125 C 92.59375 -11.707031 86.132812 -7.238281 78.6875 -3.875 C 71.25 -0.519531 63.835938 1.15625 56.453125 1.15625 C 41.285156 1.15625 28.660156 -3.785156 18.578125 -13.671875 C 8.492188 -23.566406 3.453125 -35.90625 3.453125 -50.6875 C 3.453125 -65.1875 8.585938 -77.304688 18.859375 -87.046875 C 29.128906 -96.785156 41.945312 -101.65625 57.3125 -101.65625 Z M 57.3125 -101.65625 "/></g></g></g><g fill="#fbf8cc" fill-opacity="1"><g transform="translate(111.55529, 245.249984)"><g><path d="M 57.3125 -101.65625 C 64.800781 -101.65625 72.164062 -100.117188 79.40625 -97.046875 C 86.65625 -93.984375 92.828125 -89.859375 97.921875 -84.671875 L 83.09375 -67.109375 C 79.820312 -71.140625 75.90625 -74.328125 71.34375 -76.671875 C 66.789062 -79.023438 62.257812 -80.203125 57.75 -80.203125 C 49.78125 -80.203125 43.101562 -77.394531 37.71875 -71.78125 C 32.34375 -66.164062 29.65625 -59.226562 29.65625 -50.96875 C 29.65625 -42.519531 32.34375 -35.460938 37.71875 -29.796875 C 43.101562 -24.140625 49.78125 -21.3125 57.75 -21.3125 C 61.96875 -21.3125 66.359375 -22.363281 70.921875 -24.46875 C 75.484375 -26.582031 79.539062 -29.46875 83.09375 -33.125 L 98.0625 -17.28125 C 92.59375 -11.707031 86.132812 -7.238281 78.6875 -3.875 C 71.25 -0.519531 63.835938 1.15625 56.453125 1.15625 C 41.285156 1.15625 28.660156 -3.785156 18.578125 -13.671875 C 8.492188 -23.566406 3.453125 -35.90625 3.453125 -50.6875 C 3.453125 -65.1875 8.585938 -77.304688 18.859375 -87.046875 C 29.128906 -96.785156 41.945312 -101.65625 57.3125 -101.65625 Z M 57.3125 -101.65625 "/></g></g></g></svg>